<?xml version="1.0" encoding="UTF-8" standalone="no"?>
<!-- Created with Inkscape (http://www.inkscape.org/) -->

<svg
   xmlns:dc="http://purl.org/dc/elements/1.1/"
   xmlns:cc="http://creativecommons.org/ns#"
   xmlns:rdf="http://www.w3.org/1999/02/22-rdf-syntax-ns#"
   xmlns:svg="http://www.w3.org/2000/svg"
   xmlns="http://www.w3.org/2000/svg"
   xmlns:sodipodi="http://sodipodi.sourceforge.net/DTD/sodipodi-0.dtd"
   xmlns:inkscape="http://www.inkscape.org/namespaces/inkscape"
   version="1.1"
   id="svg2"
   xml:space="preserve"
   width="1125.3547"
   height="650.22931"
   viewBox="0 0 1125.3547 650.22931"
   sodipodi:docname="gsk-site-logo.svg"
   inkscape:version="0.92.3 (2405546, 2018-03-11)"><metadata
     id="metadata8"><rdf:RDF><cc:Work
         rdf:about=""><dc:format>image/svg+xml</dc:format><dc:type
           rdf:resource="http://purl.org/dc/dcmitype/StillImage" /><dc:title></dc:title></cc:Work></rdf:RDF></metadata><defs
     id="defs6"><clipPath
       clipPathUnits="userSpaceOnUse"
       id="clipPath18"><path
         d="M 0,487.672 H 844.016 V 0 H 0 Z"
         id="path16"
         inkscape:connector-curvature="0" /></clipPath></defs><sodipodi:namedview
     pagecolor="#ffffff"
     bordercolor="#666666"
     borderopacity="1"
     objecttolerance="10"
     gridtolerance="10"
     guidetolerance="10"
     inkscape:pageopacity="0"
     inkscape:pageshadow="2"
     inkscape:window-width="1920"
     inkscape:window-height="1016"
     id="namedview4"
     showgrid="false"
     inkscape:zoom="0.35722069"
     inkscape:cx="573.87493"
     inkscape:cy="313.91709"
     inkscape:window-x="0"
     inkscape:window-y="27"
     inkscape:window-maximized="1"
     inkscape:current-layer="g10" /><g
     id="g10"
     inkscape:groupmode="layer"
     inkscape:label="GSK_LOS_2D_PMS_1505"
     transform="matrix(1.3333333,0,0,-1.3333333,0,650.22933)"><g
       id="g12"><g
         id="g14"
         clip-path="url(#clipPath18)"><g
           id="g20"
           transform="translate(574.8682,279.9985)"><path
             d="m 0,0 v 17.834 l 0.004,0.618 c 0.018,2.041 0.045,4.837 -1.617,6.513 -0.955,0.965 -2.372,1.454 -4.212,1.454 -2.376,0 -4.615,-1.239 -5.842,-3.234 -1.618,-2.599 -1.753,-5.4 -1.753,-8.046 V 0 h -7.217 v 18.034 c 0,2.37 0,3.258 -0.274,4.285 -0.701,2.568 -2.702,4.1 -5.352,4.1 -2.54,0 -4.899,-1.482 -6.311,-3.965 -1.373,-2.555 -1.482,-5.474 -1.482,-9.025 V 0 h -7.216 v 32.253 h 7.216 V 28.01 l 0.539,0.676 c 2.499,3.128 7.011,4.553 10.145,4.553 1.842,0 6.393,-0.478 8.874,-4.905 l 0.234,-0.417 0.278,0.389 c 0.823,1.157 3.999,4.933 10.266,4.933 3.574,0 6.496,-1.125 8.45,-3.254 2.489,-2.734 2.487,-6.093 2.486,-9.341 L 7.216,0 Z m 45.457,0 v 32.253 h 7.018 v -5.495 l 0.565,0.981 c 0.998,1.732 3.022,5.245 9.712,5.245 0.078,0 0.157,0 0.237,-0.001 V 25.488 C 61.218,25.42 58.385,25.263 56.012,23.467 52.475,20.758 52.475,17.216 52.475,11.854 V 0 Z m -155.581,26.552 c -5.657,0 -8.189,-5.172 -8.189,-10.298 0,-1.1 0.225,-10.751 8.058,-10.751 2.075,0 3.904,0.738 5.287,2.135 1.806,1.822 2.742,4.69 2.708,8.293 -0.067,2.133 -0.329,5.219 -1.825,7.462 -1.359,2.037 -3.504,3.159 -6.039,3.159 m -1.512,-27.541 c -7.111,0 -14.287,5.068 -14.287,16.392 0,10.502 6.012,17.836 14.618,17.836 3.595,0 6.403,-1.171 8.584,-3.58 l 0.528,-0.583 v 16.715 h 7.215 V 0 h -7.215 v 3.693 l -0.537,-0.652 c -2.169,-2.637 -5.249,-4.03 -8.906,-4.03 m 35.914,27.737 c -5.172,0 -8.783,-4.233 -8.783,-10.294 0,-7.433 4.756,-10.819 9.176,-10.819 2.349,0 4.396,0.836 5.923,2.417 1.894,1.962 2.912,5.004 2.794,8.346 -0.174,7.148 -4.701,10.35 -9.11,10.35 m 0.393,-27.737 c -9.882,0 -16.784,7.091 -16.784,17.243 0,9.842 6.922,16.985 16.458,16.985 9.783,0 16.657,-6.985 16.717,-16.987 0,-10.15 -6.74,-17.241 -16.391,-17.241 M 26.166,26.748 c -5.171,0 -8.782,-4.233 -8.782,-10.294 0,-7.433 4.756,-10.819 9.176,-10.819 2.348,0 4.396,0.836 5.922,2.418 1.895,1.962 2.913,5.004 2.793,8.345 -0.173,7.148 -4.7,10.35 -9.109,10.35 M 26.56,-0.989 c -9.883,0 -16.786,7.091 -16.786,17.243 0,9.842 6.92,16.985 16.454,16.985 8.004,0 16.652,-5.315 16.723,-16.987 0,-10.15 -6.74,-17.241 -16.391,-17.241 m 52.873,28.525 c -4.412,0 -7.367,-2.536 -8.318,-7.141 L 71.04,20.03 h 16.1 l -0.049,0.345 c -0.875,6.23 -5.174,7.161 -7.658,7.161 m 0.26,-28.525 c -7.651,0 -16.586,4.516 -16.586,17.243 0,10.318 6.305,16.985 16.061,16.985 7.812,0 11.48,-4.225 12.694,-6.042 2.722,-3.848 3.218,-9.702 3.297,-12.348 H 70.79 l 0.063,-0.356 c 0.958,-5.416 4.378,-8.399 9.63,-8.399 5.262,0 7.587,2.988 8.628,4.439 l 6.17,-3.569 C 91.183,1.613 86.08,-0.989 79.693,-0.989 m -202.79,-62.7 v 27.276 h -4.931 v 5.046 h 4.931 v 4.049 c -0.035,2.466 -0.074,5.257 1.755,7.113 1.578,1.601 4.366,2.379 8.525,2.379 1.461,0 2.838,-0.118 4.17,-0.239 v -6.066 c -0.616,0.097 -1.297,0.14 -2.199,0.14 -2.248,0 -3.562,-0.532 -4.395,-1.778 -0.291,-0.512 -0.573,-1.557 -0.573,-2.6 v -2.998 h 7.167 v -5.046 h -7.167 v -27.276 z m 83.778,45.796 h 7.35 v -45.796 h -7.35 z m 169.013,-45.796 v 32.258 h 7.018 v -5.498 l 0.565,0.982 c 0.996,1.732 3.018,5.245 9.719,5.245 0.076,0 0.153,0 0.231,-10e-4 v -7.496 c -1.77,-0.068 -4.604,-0.226 -6.978,-2.024 -3.537,-2.702 -3.537,-6.245 -3.537,-11.61 v -11.856 z m -61.71,-0.262 c -4.615,0 -7.438,1.284 -8.39,3.814 -0.506,1.262 -0.506,3.385 -0.506,6.596 v 17.062 H 54.29 v 5.048 h 4.798 v 11.632 h 7.278 v -11.632 h 7.031 v -5.048 h -7.031 v -15.157 c 0,-4.096 0,-6.152 4.051,-6.152 1.058,0 1.986,0.054 2.98,0.3 v -5.981 c -2.1,-0.346 -3.637,-0.482 -5.413,-0.482 m 21.332,0 c -4.611,0 -7.434,1.284 -8.39,3.815 -0.506,1.261 -0.506,3.384 -0.506,6.595 v 17.062 h -4.798 v 5.048 h 4.798 v 11.632 h 7.278 v -11.632 h 7.036 v -5.048 h -7.036 v -15.157 c 0,-4.096 0,-6.152 4.051,-6.152 1.058,0 1.987,0.054 2.985,0.3 v -5.981 c -2.104,-0.346 -3.643,-0.482 -5.418,-0.482 m -181.813,27.802 c -4.413,0 -7.367,-2.538 -8.318,-7.144 l -0.076,-0.365 h 16.1 l -0.049,0.345 c -0.873,6.233 -5.173,7.164 -7.657,7.164 m 0.26,-28.524 c -7.653,0 -16.588,4.516 -16.588,17.244 0,10.317 6.304,16.983 16.062,16.983 8.078,0 11.759,-4.627 12.695,-6.045 2.723,-3.846 3.218,-9.698 3.297,-12.344 h -24.369 l 0.063,-0.356 c 0.958,-5.416 4.378,-8.399 9.63,-8.399 5.261,0 7.59,2.988 8.632,4.437 l 6.167,-3.568 c -4.1,-5.35 -9.203,-7.952 -15.589,-7.952 m 33.649,28.524 c -4.414,0 -7.366,-2.538 -8.313,-7.145 l -0.076,-0.364 h 16.101 l -0.049,0.345 c -0.88,6.233 -5.179,7.164 -7.663,7.164 m 0.261,-28.524 c -7.652,0 -16.586,4.516 -16.586,17.244 0,10.317 6.306,16.983 16.064,16.983 7.831,0 11.487,-4.228 12.696,-6.046 2.716,-3.844 3.213,-9.697 3.292,-12.343 H -67.23 l 0.063,-0.356 c 0.963,-5.416 4.383,-8.399 9.63,-8.399 5.262,0 7.589,2.982 8.633,4.436 l 6.17,-3.567 c -4.1,-5.35 -9.204,-7.952 -15.593,-7.952 m 63.105,27.668 c -4.011,0 -8.058,-3.101 -8.058,-10.03 0,-2.343 0.339,-3.7 0.541,-4.3 1.513,-5.986 6.387,-6.453 7.844,-6.453 5.762,0 7.978,5.647 8.124,10.482 0.125,4.087 -1.379,6.524 -2.665,7.849 -1.533,1.581 -3.587,2.452 -5.786,2.452 M 6.16,-64.673 c -4.173,0 -7.075,2.337 -8.776,4.297 l -0.531,0.613 v -3.926 h -7.217 v 45.796 h 7.217 v -16.692 l 0.508,0.472 c 2.59,2.399 5.815,3.667 9.325,3.667 6.924,0 14.086,-6.352 14.086,-16.983 0,-11.2 -7.528,-17.244 -14.612,-17.244 m 32.765,28.524 c -4.414,0 -7.366,-2.538 -8.313,-7.145 l -0.075,-0.364 h 16.095 l -0.049,0.345 c -0.875,6.233 -5.174,7.164 -7.658,7.164 m 0.26,-28.524 c -7.651,0 -16.585,4.516 -16.585,17.244 0,10.317 6.304,16.983 16.06,16.983 7.84,0 11.492,-4.228 12.698,-6.045 2.718,-3.845 3.214,-9.698 3.293,-12.344 H 30.282 l 0.064,-0.356 c 0.963,-5.416 4.383,-8.399 9.63,-8.399 5.261,0 7.588,2.982 8.632,4.436 l 6.17,-3.567 c -4.104,-5.35 -9.209,-7.952 -15.593,-7.952 m 72.031,28.524 c -4.412,0 -7.366,-2.538 -8.318,-7.144 l -0.075,-0.365 h 16.1 l -0.049,0.345 c -0.875,6.233 -5.174,7.164 -7.658,7.164 m 0.261,-28.524 c -7.652,0 -16.586,4.516 -16.586,17.244 0,10.317 6.304,16.983 16.06,16.983 7.836,0 11.487,-4.228 12.694,-6.045 2.722,-3.844 3.218,-9.698 3.297,-12.344 h -24.369 l 0.063,-0.356 c 0.958,-5.416 4.379,-8.399 9.631,-8.399 5.261,0 7.586,2.985 8.628,4.437 l 6.173,-3.568 c -4.103,-5.35 -9.207,-7.952 -15.591,-7.952 m -222.642,-17.366 h 7.216 v -7.345 h -7.216 z m -11.932,0.459 h 7.346 v -45.793 h -7.346 z m 11.932,-13.539 h 7.216 v -32.254 h -7.216 z m 20.234,-32.254 -10.45,32.254 h 7.507 l 7.065,-23.363 6.924,23.363 h 7.575 l -10.586,-32.254 z m 68.574,45.793 h 7.345 v -45.793 h -7.345 z m 65.798,-45.793 v 16.454 c 0,2.479 0,4.118 -0.276,5.082 -0.724,2.889 -2.849,4.621 -5.681,4.621 -2.633,0 -5.113,-1.508 -6.317,-3.843 -1.277,-2.498 -1.277,-5.884 -1.277,-8.357 v -13.957 h -7.35 v 32.254 h 7.35 v -4.577 l 0.555,0.837 c 0.651,0.982 1.484,1.816 2.475,2.479 1.869,1.368 4.766,2.248 7.39,2.248 3.377,0 6.662,-1.5 8.367,-3.821 1.976,-2.678 1.976,-6.087 1.976,-10.401 v -19.019 z m 77.66,0 v 32.254 h 7.017 v -5.491 l 0.566,0.977 c 1.005,1.739 3.034,5.246 9.718,5.246 0.078,0 0.157,0 0.236,-0.001 v -7.496 c -1.773,-0.067 -4.605,-0.225 -6.978,-2.023 -3.542,-2.711 -3.542,-6.444 -3.542,-11.611 v -11.855 z m -178.039,27.537 c -4.413,0 -7.367,-2.537 -8.318,-7.141 l -0.075,-0.364 h 16.104 l -0.048,0.344 c -0.881,6.231 -5.179,7.161 -7.663,7.161 m 0.264,-28.525 c -7.653,0 -16.591,4.518 -16.591,17.248 0,10.316 6.305,16.981 16.061,16.981 7.821,0 11.487,-4.227 12.7,-6.043 2.717,-3.846 3.213,-9.698 3.292,-12.343 h -24.369 l 0.062,-0.356 c 0.958,-5.418 4.378,-8.403 9.631,-8.403 5.262,0 7.586,2.987 8.628,4.44 l 6.175,-3.57 c -4.103,-5.35 -9.206,-7.954 -15.589,-7.954 m 60.604,27.738 c -5.169,0 -8.779,-4.234 -8.779,-10.296 0,-7.432 4.756,-10.817 9.176,-10.817 2.35,0 4.399,0.836 5.924,2.419 1.894,1.964 2.909,5.006 2.787,8.346 -0.124,5.149 -2.989,10.348 -9.108,10.348 m 0.397,-27.738 c -9.885,0 -16.789,7.093 -16.789,17.248 0,9.839 6.921,16.981 16.457,16.981 8.002,0 16.648,-5.315 16.719,-16.983 0,-10.153 -6.738,-17.246 -16.387,-17.246 m 98.293,28.525 c -4.409,0 -7.361,-2.537 -8.312,-7.141 l -0.076,-0.364 h 16.105 l -0.049,0.344 c -0.88,6.231 -5.182,7.161 -7.668,7.161 m 0.266,-28.525 c -7.652,0 -16.586,4.518 -16.586,17.248 0,10.316 6.304,16.981 16.06,16.981 7.793,0 11.478,-4.227 12.701,-6.044 2.722,-3.855 3.21,-9.7 3.286,-12.342 H 93.982 l 0.063,-0.356 c 0.959,-5.418 4.379,-8.403 9.631,-8.403 5.262,0 7.587,2.987 8.628,4.44 l 6.17,-3.57 c -4.098,-5.35 -9.201,-7.954 -15.588,-7.954 M 68.54,-100.56 c -4.174,0 -8.385,-2.876 -8.385,-9.303 0,-5.541 3.239,-8.982 8.451,-8.982 5.197,0 8.332,3.232 8.385,8.647 0.041,3.024 -0.87,5.635 -2.564,7.352 -1.476,1.496 -3.511,2.286 -5.887,2.286 m 0,-37.791 c -11.404,0 -13.671,4.947 -14.737,9.716 h 8.077 c 0.609,-1.811 2.041,-4.074 6.926,-4.074 4.225,0 6.046,1.727 6.756,2.756 1.236,1.717 1.236,3.727 1.236,7.732 v 0.692 l -0.509,-0.47 c -0.882,-0.814 -4.184,-3.471 -9.651,-3.471 -8.48,0 -13.959,6.048 -13.959,15.408 0,12.574 9.104,15.93 14.484,15.93 5.767,0 8.183,-3.114 9.093,-4.285 l 0.542,-0.7 v 3.998 h 7.217 l -0.003,-26.891 c -0.064,-6.24 -0.09,-8.823 -2.044,-11.465 -1.373,-1.819 -4.947,-4.876 -13.428,-4.876"
             style="fill:#ff6100;fill-opacity:1;fill-rule:nonzero;stroke:none"
             id="path22"
             inkscape:connector-curvature="0" /></g><g
           id="g24"
           transform="translate(299.4473,365.752)"><path
             d="m 0,0 c -56.27,0 -177.526,-11.859 -177.526,-102.305 0,-61.465 61.53,-141.529 129.575,-141.529 22.017,0 40.853,7.82 58.478,20.758 42.065,31.279 95.412,101.404 95.412,155.881 C 105.939,-26.395 77.188,0 0,0"
             style="fill:#ff6100;fill-opacity:1;fill-rule:nonzero;stroke:none"
             id="path26"
             inkscape:connector-curvature="0" /></g><g
           id="g28"
           transform="translate(196.7891,189.4922)"><path
             d="m 0,0 c -23.012,-2.475 -40.953,12.777 -19.687,24.51 4.88,-0.375 8.671,-0.893 16.558,-1.207 C 12.309,22.697 17.186,19.174 18.398,14.92 20.232,8.494 14.824,1.59 0,0 m -29.684,79.332 c 0,10.268 6.323,17.27 16.846,17.27 12.02,0 18.483,-8.961 18.483,-20.217 0,-10.285 -5.575,-17.602 -16.35,-17.602 -12.275,0 -18.979,9.02 -18.979,20.549 M 20.01,31.557 c -7.192,3.304 -17.91,3.545 -35.416,4.923 -8.153,0.641 -9.77,3.012 -9.77,6.264 0,1.959 0.987,4.16 3.117,5.885 1.422,1.174 3.262,2.066 5.315,2.461 2.107,-0.25 3.924,-0.326 5.596,-0.326 19.533,0 30.564,11.759 30.564,25.787 0,6.021 -2.264,12.275 -6.264,16.797 4.256,0 12.264,-0.506 14.774,-1.014 v 10.027 c -4.504,-1.257 -10.016,-1.504 -14.774,-1.504 -4.004,0 -7.759,0.758 -11.283,1.756 -4.25,1.256 -9.238,2.248 -13.488,2.248 -19.635,0 -31.754,-12.035 -31.754,-27.605 0,-10.723 6.926,-20.233 16.947,-23.988 -7.515,-3.518 -11.529,-8.516 -11.529,-14.284 0,-5.642 3.978,-11.496 11.762,-13.589 C -37.484,20.477 -48.002,11.592 -40.16,1.236 -28.639,-13.965 12.018,-12.34 24.67,3.48 c 9.912,12.393 3.18,24.473 -4.66,28.077 m 47.144,36.988 c -10.004,5.004 -19.535,9.527 -19.535,17.531 0,6.766 7.252,9.778 14.787,9.778 7.766,0 15.016,-2.75 21.045,-7.52 v 11.268 c -6.269,3.509 -13.531,5.259 -20.799,5.259 -13.519,0 -28.55,-6.756 -28.55,-22.289 0,-12.793 11.265,-18.293 21.787,-23.297 9.517,-4.505 18.293,-8.511 18.293,-16.783 0,-8.248 -8.776,-10 -15.791,-10 -6.504,0 -16.772,2.75 -25.039,7.24 V 28.225 c 8.015,-3.268 15.781,-5.026 24.55,-5.026 14.03,0 30.807,5.774 30.807,22.567 0,11.507 -11.02,17.498 -21.555,22.779 M 169.68,27.984 c -4.258,0 -10.116,1.106 -19.379,11.123 -12.031,13.28 -25.969,30.198 -25.969,30.198 l 21.305,20.033 c 12.513,11.766 16.025,12.517 17.023,12.767 h -19.781 c -4.012,-5.253 -8.524,-9.263 -8.524,-9.263 L 111.566,71.537 v 67.141 l -17.298,-4.496 c 2.265,-3.012 3.019,-8.026 3.019,-19.303 V 45.488 c 0,-14.011 -0.754,-15.521 -2.254,-19.521 h 18.533 c -1.248,3.256 -2,5.51 -2,19.521 v 20.057 c 0,0 10.278,-12.277 23.045,-27.565 8.01,-9.494 14.535,-13.771 22.293,-13.771 6.008,0 11.524,1.502 15.272,4.277 -0.746,-0.261 -1.746,-0.502 -2.496,-0.502"
             style="fill:#ffffff;fill-opacity:1;fill-rule:nonzero;stroke:none"
             id="path30"
             inkscape:connector-curvature="0" /></g></g></g></g></svg>